<svg width="24" height="24" viewBox="0 0 24 24" fill="none" xmlns="http://www.w3.org/2000/svg">
<foreignObject x="-24.6113" y="-29.4238" width="73.2226" height="69.0976"><div xmlns="http://www.w3.org/1999/xhtml" style="backdrop-filter:blur(15.9px);clip-path:url(#bgblur_0_17120_113652_clip_path);height:100%;width:100%"></div></foreignObject><g filter="url(#filter0_ii_17120_113652)" data-figma-bg-blur-radius="31.7988">
<path d="M7.875 7.875H16.125C16.5045 7.875 16.8125 7.567 16.8125 7.1875V3.0625C16.8125 2.683 16.5045 2.375 16.125 2.375H7.875C7.4955 2.375 7.1875 2.683 7.1875 3.0625V7.1875C7.1875 7.567 7.4955 7.875 7.875 7.875Z" fill="#F8F8F8" fill-opacity="0.02"/>
<path d="M7.875 7.875H16.125C16.5045 7.875 16.8125 7.567 16.8125 7.1875V3.0625C16.8125 2.683 16.5045 2.375 16.125 2.375H7.875C7.4955 2.375 7.1875 2.683 7.1875 3.0625V7.1875C7.1875 7.567 7.4955 7.875 7.875 7.875Z" fill="url(#paint0_linear_17120_113652)" fill-opacity="0.25"/>
<path d="M7.875 2.74805H16.125C16.2987 2.74805 16.4395 2.8888 16.4395 3.0625V7.1875C16.4395 7.3612 16.2987 7.50195 16.125 7.50195H7.875C7.7013 7.50195 7.56055 7.3612 7.56055 7.1875V3.0625C7.56055 2.8888 7.7013 2.74805 7.875 2.74805Z" stroke="url(#paint1_linear_17120_113652)" stroke-opacity="0.25" stroke-width="0.745284"/>
</g>
<foreignObject x="-30.7988" y="-15.6738" width="73.2226" height="69.0976"><div xmlns="http://www.w3.org/1999/xhtml" style="backdrop-filter:blur(15.9px);clip-path:url(#bgblur_1_17120_113652_clip_path);height:100%;width:100%"></div></foreignObject><g filter="url(#filter1_ii_17120_113652)" data-figma-bg-blur-radius="31.7988">
<path d="M9.9375 16.125H1.6875C1.308 16.125 1 16.433 1 16.8125V20.9375C1 21.317 1.308 21.625 1.6875 21.625H9.9375C10.317 21.625 10.625 21.317 10.625 20.9375V16.8125C10.625 16.433 10.317 16.125 9.9375 16.125Z" fill="#F8F8F8" fill-opacity="0.02"/>
<path d="M9.9375 16.125H1.6875C1.308 16.125 1 16.433 1 16.8125V20.9375C1 21.317 1.308 21.625 1.6875 21.625H9.9375C10.317 21.625 10.625 21.317 10.625 20.9375V16.8125C10.625 16.433 10.317 16.125 9.9375 16.125Z" fill="url(#paint2_linear_17120_113652)" fill-opacity="0.25"/>
<path d="M1.6875 16.498H9.9375C10.1112 16.498 10.252 16.6388 10.252 16.8125V20.9375C10.252 21.1112 10.1112 21.252 9.9375 21.252H1.6875C1.5138 21.252 1.37305 21.1112 1.37305 20.9375V16.8125C1.37305 16.6388 1.5138 16.498 1.6875 16.498Z" stroke="url(#paint3_linear_17120_113652)" stroke-opacity="0.25" stroke-width="0.745284"/>
</g>
<path d="M22.3125 16.125H14.0625C13.683 16.125 13.375 16.433 13.375 16.8125V20.9375C13.375 21.317 13.683 21.625 14.0625 21.625H22.3125C22.692 21.625 23 21.317 23 20.9375V16.8125C23 16.433 22.692 16.125 22.3125 16.125Z" fill="#13F584"/>
<foreignObject x="-26.6738" y="-23.2363" width="77.3476" height="70.4726"><div xmlns="http://www.w3.org/1999/xhtml" style="backdrop-filter:blur(15.9px);clip-path:url(#bgblur_2_17120_113652_clip_path);height:100%;width:100%"></div></foreignObject><g filter="url(#filter2_ii_17120_113652)" data-figma-bg-blur-radius="31.7988">
<path d="M6.5 12.6875H17.5V15.4375H18.875V12C18.875 11.6205 18.567 11.3125 18.1875 11.3125H12.6875V8.5625H11.3125V11.3125H5.8125C5.433 11.3125 5.125 11.6205 5.125 12V15.4375H6.5V12.6875Z" fill="#F8F8F8" fill-opacity="0.02"/>
<path d="M6.5 12.6875H17.5V15.4375H18.875V12C18.875 11.6205 18.567 11.3125 18.1875 11.3125H12.6875V8.5625H11.3125V11.3125H5.8125C5.433 11.3125 5.125 11.6205 5.125 12V15.4375H6.5V12.6875Z" fill="url(#paint4_linear_17120_113652)" fill-opacity="0.25"/>
<path d="M12.3145 8.93555V11.6855H18.1875C18.3612 11.6855 18.502 11.8263 18.502 12V15.0645H17.873V12.3145H6.12695V15.0645H5.49805V12C5.49805 11.8263 5.6388 11.6855 5.8125 11.6855H11.6855V8.93555H12.3145Z" stroke="url(#paint5_linear_17120_113652)" stroke-opacity="0.25" stroke-width="0.745284"/>
</g>
<defs>
<filter id="filter0_ii_17120_113652" x="-24.6113" y="-29.4238" width="73.2226" height="69.0976" filterUnits="userSpaceOnUse" color-interpolation-filters="sRGB">
<feFlood flood-opacity="0" result="BackgroundImageFix"/>
<feBlend mode="normal" in="SourceGraphic" in2="BackgroundImageFix" result="shape"/>
<feColorMatrix in="SourceAlpha" type="matrix" values="0 0 0 0 0 0 0 0 0 0 0 0 0 0 0 0 0 0 127 0" result="hardAlpha"/>
<feOffset/>
<feGaussianBlur stdDeviation="1.98742"/>
<feComposite in2="hardAlpha" operator="arithmetic" k2="-1" k3="1"/>
<feColorMatrix type="matrix" values="0 0 0 0 1 0 0 0 0 1 0 0 0 0 1 0 0 0 1 0"/>
<feBlend mode="multiply" in2="shape" result="effect1_innerShadow_17120_113652"/>
<feColorMatrix in="SourceAlpha" type="matrix" values="0 0 0 0 0 0 0 0 0 0 0 0 0 0 0 0 0 0 127 0" result="hardAlpha"/>
<feOffset/>
<feGaussianBlur stdDeviation="1.98742"/>
<feComposite in2="hardAlpha" operator="arithmetic" k2="-1" k3="1"/>
<feColorMatrix type="matrix" values="0 0 0 0 0.972549 0 0 0 0 0.972549 0 0 0 0 0.972549 0 0 0 0.1 0"/>
<feBlend mode="normal" in2="effect1_innerShadow_17120_113652" result="effect2_innerShadow_17120_113652"/>
</filter>
<clipPath id="bgblur_0_17120_113652_clip_path" transform="translate(24.6113 29.4238)"><path d="M7.875 7.875H16.125C16.5045 7.875 16.8125 7.567 16.8125 7.1875V3.0625C16.8125 2.683 16.5045 2.375 16.125 2.375H7.875C7.4955 2.375 7.1875 2.683 7.1875 3.0625V7.1875C7.1875 7.567 7.4955 7.875 7.875 7.875Z"/>
</clipPath><filter id="filter1_ii_17120_113652" x="-30.7988" y="-15.6738" width="73.2226" height="69.0976" filterUnits="userSpaceOnUse" color-interpolation-filters="sRGB">
<feFlood flood-opacity="0" result="BackgroundImageFix"/>
<feBlend mode="normal" in="SourceGraphic" in2="BackgroundImageFix" result="shape"/>
<feColorMatrix in="SourceAlpha" type="matrix" values="0 0 0 0 0 0 0 0 0 0 0 0 0 0 0 0 0 0 127 0" result="hardAlpha"/>
<feOffset/>
<feGaussianBlur stdDeviation="1.98742"/>
<feComposite in2="hardAlpha" operator="arithmetic" k2="-1" k3="1"/>
<feColorMatrix type="matrix" values="0 0 0 0 1 0 0 0 0 1 0 0 0 0 1 0 0 0 1 0"/>
<feBlend mode="multiply" in2="shape" result="effect1_innerShadow_17120_113652"/>
<feColorMatrix in="SourceAlpha" type="matrix" values="0 0 0 0 0 0 0 0 0 0 0 0 0 0 0 0 0 0 127 0" result="hardAlpha"/>
<feOffset/>
<feGaussianBlur stdDeviation="1.98742"/>
<feComposite in2="hardAlpha" operator="arithmetic" k2="-1" k3="1"/>
<feColorMatrix type="matrix" values="0 0 0 0 0.972549 0 0 0 0 0.972549 0 0 0 0 0.972549 0 0 0 0.1 0"/>
<feBlend mode="normal" in2="effect1_innerShadow_17120_113652" result="effect2_innerShadow_17120_113652"/>
</filter>
<clipPath id="bgblur_1_17120_113652_clip_path" transform="translate(30.7988 15.6738)"><path d="M9.9375 16.125H1.6875C1.308 16.125 1 16.433 1 16.8125V20.9375C1 21.317 1.308 21.625 1.6875 21.625H9.9375C10.317 21.625 10.625 21.317 10.625 20.9375V16.8125C10.625 16.433 10.317 16.125 9.9375 16.125Z"/>
</clipPath><filter id="filter2_ii_17120_113652" x="-26.6738" y="-23.2363" width="77.3476" height="70.4726" filterUnits="userSpaceOnUse" color-interpolation-filters="sRGB">
<feFlood flood-opacity="0" result="BackgroundImageFix"/>
<feBlend mode="normal" in="SourceGraphic" in2="BackgroundImageFix" result="shape"/>
<feColorMatrix in="SourceAlpha" type="matrix" values="0 0 0 0 0 0 0 0 0 0 0 0 0 0 0 0 0 0 127 0" result="hardAlpha"/>
<feOffset/>
<feGaussianBlur stdDeviation="1.98742"/>
<feComposite in2="hardAlpha" operator="arithmetic" k2="-1" k3="1"/>
<feColorMatrix type="matrix" values="0 0 0 0 1 0 0 0 0 1 0 0 0 0 1 0 0 0 1 0"/>
<feBlend mode="multiply" in2="shape" result="effect1_innerShadow_17120_113652"/>
<feColorMatrix in="SourceAlpha" type="matrix" values="0 0 0 0 0 0 0 0 0 0 0 0 0 0 0 0 0 0 127 0" result="hardAlpha"/>
<feOffset/>
<feGaussianBlur stdDeviation="1.98742"/>
<feComposite in2="hardAlpha" operator="arithmetic" k2="-1" k3="1"/>
<feColorMatrix type="matrix" values="0 0 0 0 0.972549 0 0 0 0 0.972549 0 0 0 0 0.972549 0 0 0 0.1 0"/>
<feBlend mode="normal" in2="effect1_innerShadow_17120_113652" result="effect2_innerShadow_17120_113652"/>
</filter>
<clipPath id="bgblur_2_17120_113652_clip_path" transform="translate(26.6738 23.2363)"><path d="M6.5 12.6875H17.5V15.4375H18.875V12C18.875 11.6205 18.567 11.3125 18.1875 11.3125H12.6875V8.5625H11.3125V11.3125H5.8125C5.433 11.3125 5.125 11.6205 5.125 12V15.4375H6.5V12.6875Z"/>
</clipPath><linearGradient id="paint0_linear_17120_113652" x1="7.1875" y1="2.375" x2="6.424" y2="12.3601" gradientUnits="userSpaceOnUse">
<stop stop-color="white" stop-opacity="0.4"/>
<stop offset="1" stop-color="white" stop-opacity="0"/>
</linearGradient>
<linearGradient id="paint1_linear_17120_113652" x1="12" y1="5.125" x2="6.03231" y2="0.841551" gradientUnits="userSpaceOnUse">
<stop stop-color="white" stop-opacity="0"/>
<stop offset="1" stop-color="white" stop-opacity="0.5"/>
</linearGradient>
<linearGradient id="paint2_linear_17120_113652" x1="1" y1="16.125" x2="0.2365" y2="26.1101" gradientUnits="userSpaceOnUse">
<stop stop-color="white" stop-opacity="0.4"/>
<stop offset="1" stop-color="white" stop-opacity="0"/>
</linearGradient>
<linearGradient id="paint3_linear_17120_113652" x1="5.8125" y1="18.875" x2="-0.15519" y2="14.5916" gradientUnits="userSpaceOnUse">
<stop stop-color="white" stop-opacity="0"/>
<stop offset="1" stop-color="white" stop-opacity="0.5"/>
</linearGradient>
<linearGradient id="paint4_linear_17120_113652" x1="5.125" y1="8.5625" x2="4.28878" y2="21.061" gradientUnits="userSpaceOnUse">
<stop stop-color="white" stop-opacity="0.4"/>
<stop offset="1" stop-color="white" stop-opacity="0"/>
</linearGradient>
<linearGradient id="paint5_linear_17120_113652" x1="12" y1="12" x2="4.27845" y2="5.66592" gradientUnits="userSpaceOnUse">
<stop stop-color="white" stop-opacity="0"/>
<stop offset="1" stop-color="white" stop-opacity="0.5"/>
</linearGradient>
</defs>
</svg>
