<svg width="25" height="25" viewBox="0 0 25 25" fill="none" xmlns="http://www.w3.org/2000/svg">
<g clip-path="url(#clip0_15097_369957)">
<foreignObject x="-33.6899" y="-33.6899" width="79.4633" height="76.7133"><div xmlns="http://www.w3.org/1999/xhtml" style="backdrop-filter:blur(17.34px);clip-path:url(#bgblur_1_15097_369957_clip_path);height:100%;width:100%"></div></foreignObject><g filter="url(#filter0_dii_15097_369957)" data-figma-bg-blur-radius="34.6899">
<path d="M9.47913 1H2.60411C1.71956 1 1 1.71956 1 2.60411V6.72913C1 7.61385 1.71956 8.33341 2.60411 8.33341H9.47913C10.3639 8.33341 11.0834 7.61385 11.0834 6.72913V2.60411C11.0834 1.71956 10.3639 1 9.47913 1Z" fill="#F8F8F8" fill-opacity="0.02" shape-rendering="crispEdges"/>
<path d="M9.47913 1H2.60411C1.71956 1 1 1.71956 1 2.60411V6.72913C1 7.61385 1.71956 8.33341 2.60411 8.33341H9.47913C10.3639 8.33341 11.0834 7.61385 11.0834 6.72913V2.60411C11.0834 1.71956 10.3639 1 9.47913 1Z" fill="url(#paint0_linear_15097_369957)" fill-opacity="0.25" shape-rendering="crispEdges"/>
<path d="M2.60449 1.40625H9.47949C10.1396 1.40645 10.6768 1.9446 10.6768 2.60449V6.72949C10.6766 7.38941 10.1394 7.92656 9.47949 7.92676H2.60449C1.9446 7.92676 1.40645 7.38956 1.40625 6.72949V2.60449C1.40625 1.94445 1.94445 1.40625 2.60449 1.40625Z" stroke="url(#paint1_linear_15097_369957)" stroke-opacity="0.25" stroke-width="0.813046" shape-rendering="crispEdges"/>
</g>
<foreignObject x="-33.6899" y="-24.5234" width="79.4633" height="82.2133"><div xmlns="http://www.w3.org/1999/xhtml" style="backdrop-filter:blur(17.34px);clip-path:url(#bgblur_2_15097_369957_clip_path);height:100%;width:100%"></div></foreignObject><g filter="url(#filter1_dii_15097_369957)" data-figma-bg-blur-radius="34.6899">
<path d="M9.47913 10.1665H2.60411C1.71956 10.1665 1 10.8861 1 11.7708V21.3958C1 22.2804 1.71956 22.9999 2.60411 22.9999H9.47913C10.3639 22.9999 11.0834 22.2804 11.0834 21.3958V11.7708C11.0834 10.8861 10.3639 10.1665 9.47913 10.1665Z" fill="#F8F8F8" fill-opacity="0.02" shape-rendering="crispEdges"/>
<path d="M9.47913 10.1665H2.60411C1.71956 10.1665 1 10.8861 1 11.7708V21.3958C1 22.2804 1.71956 22.9999 2.60411 22.9999H9.47913C10.3639 22.9999 11.0834 22.2804 11.0834 21.3958V11.7708C11.0834 10.8861 10.3639 10.1665 9.47913 10.1665Z" fill="url(#paint2_linear_15097_369957)" fill-opacity="0.25" shape-rendering="crispEdges"/>
<path d="M2.60449 10.5728H9.47949C10.1395 10.5729 10.6768 11.1109 10.6768 11.771V21.396C10.6767 22.0558 10.1395 22.5931 9.47949 22.5933H2.60449C1.94452 22.5933 1.40635 22.0559 1.40625 21.396V11.771C1.40625 11.1108 1.94448 10.5728 2.60449 10.5728Z" stroke="url(#paint3_linear_15097_369957)" stroke-opacity="0.25" stroke-width="0.813046" shape-rendering="crispEdges"/>
</g>
<path d="M21.396 15.6665H14.5209C13.6362 15.6665 12.9167 16.3861 12.9167 17.2708V21.3958C12.9167 22.2804 13.6362 22.9999 14.5209 22.9999H21.396C22.2805 22.9999 23.0001 22.2804 23.0001 21.3958V17.2708C23.0001 16.3861 22.2805 15.6665 21.396 15.6665Z" fill="#13F584"/>
<foreignObject x="-21.7733" y="-33.6899" width="79.4633" height="82.2133"><div xmlns="http://www.w3.org/1999/xhtml" style="backdrop-filter:blur(17.34px);clip-path:url(#bgblur_3_15097_369957_clip_path);height:100%;width:100%"></div></foreignObject><g filter="url(#filter2_dii_15097_369957)" data-figma-bg-blur-radius="34.6899">
<path d="M21.396 1H14.5209C13.6362 1 12.9167 1.71956 12.9167 2.60411V12.2291C12.9167 13.1139 13.6362 13.8334 14.5209 13.8334H21.396C22.2805 13.8334 23.0001 13.1139 23.0001 12.2291V2.60411C23.0001 1.71956 22.2805 1 21.396 1Z" fill="#F8F8F8" fill-opacity="0.02" shape-rendering="crispEdges"/>
<path d="M21.396 1H14.5209C13.6362 1 12.9167 1.71956 12.9167 2.60411V12.2291C12.9167 13.1139 13.6362 13.8334 14.5209 13.8334H21.396C22.2805 13.8334 23.0001 13.1139 23.0001 12.2291V2.60411C23.0001 1.71956 22.2805 1 21.396 1Z" fill="url(#paint4_linear_15097_369957)" fill-opacity="0.25" shape-rendering="crispEdges"/>
<path d="M14.5211 1.40625H21.3961C22.0561 1.40635 22.5934 1.94452 22.5934 2.60449V12.2295C22.5932 12.8895 22.056 13.4267 21.3961 13.4268H14.5211C13.8611 13.4268 13.3231 12.8895 13.3229 12.2295V2.60449C13.3229 1.94448 13.8609 1.40625 14.5211 1.40625Z" stroke="url(#paint5_linear_15097_369957)" stroke-opacity="0.25" stroke-width="0.813046" shape-rendering="crispEdges"/>
</g>
</g>
<defs>
<filter id="filter0_dii_15097_369957" x="-33.6899" y="-33.6899" width="79.4633" height="76.7133" filterUnits="userSpaceOnUse" color-interpolation-filters="sRGB">
<feFlood flood-opacity="0" result="BackgroundImageFix"/>
<feColorMatrix in="SourceAlpha" type="matrix" values="0 0 0 0 0 0 0 0 0 0 0 0 0 0 0 0 0 0 127 0" result="hardAlpha"/>
<feMorphology radius="3.79421" operator="erode" in="SourceAlpha" result="effect1_dropShadow_15097_369957"/>
<feOffset dy="8.67249"/>
<feGaussianBlur stdDeviation="3.25218"/>
<feComposite in2="hardAlpha" operator="out"/>
<feColorMatrix type="matrix" values="0 0 0 0 0.0705882 0 0 0 0 0.0705882 0 0 0 0 0.0705882 0 0 0 0.2 0"/>
<feBlend mode="normal" in2="BackgroundImageFix" result="effect1_dropShadow_15097_369957"/>
<feBlend mode="normal" in="SourceGraphic" in2="effect1_dropShadow_15097_369957" result="shape"/>
<feColorMatrix in="SourceAlpha" type="matrix" values="0 0 0 0 0 0 0 0 0 0 0 0 0 0 0 0 0 0 127 0" result="hardAlpha"/>
<feOffset/>
<feGaussianBlur stdDeviation="2.16812"/>
<feComposite in2="hardAlpha" operator="arithmetic" k2="-1" k3="1"/>
<feColorMatrix type="matrix" values="0 0 0 0 1 0 0 0 0 1 0 0 0 0 1 0 0 0 1 0"/>
<feBlend mode="multiply" in2="shape" result="effect2_innerShadow_15097_369957"/>
<feColorMatrix in="SourceAlpha" type="matrix" values="0 0 0 0 0 0 0 0 0 0 0 0 0 0 0 0 0 0 127 0" result="hardAlpha"/>
<feOffset/>
<feGaussianBlur stdDeviation="2.16812"/>
<feComposite in2="hardAlpha" operator="arithmetic" k2="-1" k3="1"/>
<feColorMatrix type="matrix" values="0 0 0 0 0.972549 0 0 0 0 0.972549 0 0 0 0 0.972549 0 0 0 0.1 0"/>
<feBlend mode="normal" in2="effect2_innerShadow_15097_369957" result="effect3_innerShadow_15097_369957"/>
</filter>
<clipPath id="bgblur_1_15097_369957_clip_path" transform="translate(33.6899 33.6899)"><path d="M9.47913 1H2.60411C1.71956 1 1 1.71956 1 2.60411V6.72913C1 7.61385 1.71956 8.33341 2.60411 8.33341H9.47913C10.3639 8.33341 11.0834 7.61385 11.0834 6.72913V2.60411C11.0834 1.71956 10.3639 1 9.47913 1Z"/>
</clipPath><filter id="filter1_dii_15097_369957" x="-33.6899" y="-24.5234" width="79.4633" height="82.2133" filterUnits="userSpaceOnUse" color-interpolation-filters="sRGB">
<feFlood flood-opacity="0" result="BackgroundImageFix"/>
<feColorMatrix in="SourceAlpha" type="matrix" values="0 0 0 0 0 0 0 0 0 0 0 0 0 0 0 0 0 0 127 0" result="hardAlpha"/>
<feMorphology radius="3.79421" operator="erode" in="SourceAlpha" result="effect1_dropShadow_15097_369957"/>
<feOffset dy="8.67249"/>
<feGaussianBlur stdDeviation="3.25218"/>
<feComposite in2="hardAlpha" operator="out"/>
<feColorMatrix type="matrix" values="0 0 0 0 0.0705882 0 0 0 0 0.0705882 0 0 0 0 0.0705882 0 0 0 0.2 0"/>
<feBlend mode="normal" in2="BackgroundImageFix" result="effect1_dropShadow_15097_369957"/>
<feBlend mode="normal" in="SourceGraphic" in2="effect1_dropShadow_15097_369957" result="shape"/>
<feColorMatrix in="SourceAlpha" type="matrix" values="0 0 0 0 0 0 0 0 0 0 0 0 0 0 0 0 0 0 127 0" result="hardAlpha"/>
<feOffset/>
<feGaussianBlur stdDeviation="2.16812"/>
<feComposite in2="hardAlpha" operator="arithmetic" k2="-1" k3="1"/>
<feColorMatrix type="matrix" values="0 0 0 0 1 0 0 0 0 1 0 0 0 0 1 0 0 0 1 0"/>
<feBlend mode="multiply" in2="shape" result="effect2_innerShadow_15097_369957"/>
<feColorMatrix in="SourceAlpha" type="matrix" values="0 0 0 0 0 0 0 0 0 0 0 0 0 0 0 0 0 0 127 0" result="hardAlpha"/>
<feOffset/>
<feGaussianBlur stdDeviation="2.16812"/>
<feComposite in2="hardAlpha" operator="arithmetic" k2="-1" k3="1"/>
<feColorMatrix type="matrix" values="0 0 0 0 0.972549 0 0 0 0 0.972549 0 0 0 0 0.972549 0 0 0 0.1 0"/>
<feBlend mode="normal" in2="effect2_innerShadow_15097_369957" result="effect3_innerShadow_15097_369957"/>
</filter>
<clipPath id="bgblur_2_15097_369957_clip_path" transform="translate(33.6899 24.5234)"><path d="M9.47913 10.1665H2.60411C1.71956 10.1665 1 10.8861 1 11.7708V21.3958C1 22.2804 1.71956 22.9999 2.60411 22.9999H9.47913C10.3639 22.9999 11.0834 22.2804 11.0834 21.3958V11.7708C11.0834 10.8861 10.3639 10.1665 9.47913 10.1665Z"/>
</clipPath><filter id="filter2_dii_15097_369957" x="-21.7733" y="-33.6899" width="79.4633" height="82.2133" filterUnits="userSpaceOnUse" color-interpolation-filters="sRGB">
<feFlood flood-opacity="0" result="BackgroundImageFix"/>
<feColorMatrix in="SourceAlpha" type="matrix" values="0 0 0 0 0 0 0 0 0 0 0 0 0 0 0 0 0 0 127 0" result="hardAlpha"/>
<feMorphology radius="3.79421" operator="erode" in="SourceAlpha" result="effect1_dropShadow_15097_369957"/>
<feOffset dy="8.67249"/>
<feGaussianBlur stdDeviation="3.25218"/>
<feComposite in2="hardAlpha" operator="out"/>
<feColorMatrix type="matrix" values="0 0 0 0 0.0705882 0 0 0 0 0.0705882 0 0 0 0 0.0705882 0 0 0 0.2 0"/>
<feBlend mode="normal" in2="BackgroundImageFix" result="effect1_dropShadow_15097_369957"/>
<feBlend mode="normal" in="SourceGraphic" in2="effect1_dropShadow_15097_369957" result="shape"/>
<feColorMatrix in="SourceAlpha" type="matrix" values="0 0 0 0 0 0 0 0 0 0 0 0 0 0 0 0 0 0 127 0" result="hardAlpha"/>
<feOffset/>
<feGaussianBlur stdDeviation="2.16812"/>
<feComposite in2="hardAlpha" operator="arithmetic" k2="-1" k3="1"/>
<feColorMatrix type="matrix" values="0 0 0 0 1 0 0 0 0 1 0 0 0 0 1 0 0 0 1 0"/>
<feBlend mode="multiply" in2="shape" result="effect2_innerShadow_15097_369957"/>
<feColorMatrix in="SourceAlpha" type="matrix" values="0 0 0 0 0 0 0 0 0 0 0 0 0 0 0 0 0 0 127 0" result="hardAlpha"/>
<feOffset/>
<feGaussianBlur stdDeviation="2.16812"/>
<feComposite in2="hardAlpha" operator="arithmetic" k2="-1" k3="1"/>
<feColorMatrix type="matrix" values="0 0 0 0 0.972549 0 0 0 0 0.972549 0 0 0 0 0.972549 0 0 0 0.1 0"/>
<feBlend mode="normal" in2="effect2_innerShadow_15097_369957" result="effect3_innerShadow_15097_369957"/>
</filter>
<clipPath id="bgblur_3_15097_369957_clip_path" transform="translate(21.7733 33.6899)"><path d="M21.396 1H14.5209C13.6362 1 12.9167 1.71956 12.9167 2.60411V12.2291C12.9167 13.1139 13.6362 13.8334 14.5209 13.8334H21.396C22.2805 13.8334 23.0001 13.1139 23.0001 12.2291V2.60411C23.0001 1.71956 22.2805 1 21.396 1Z"/>
</clipPath><linearGradient id="paint0_linear_15097_369957" x1="1" y1="1" x2="-0.291001" y2="14.2659" gradientUnits="userSpaceOnUse">
<stop stop-color="white" stop-opacity="0.4"/>
<stop offset="1" stop-color="white" stop-opacity="0"/>
</linearGradient>
<linearGradient id="paint1_linear_15097_369957" x1="6.04171" y1="4.6667" x2="-1.14532" y2="0.613483" gradientUnits="userSpaceOnUse">
<stop stop-color="white" stop-opacity="0"/>
<stop offset="1" stop-color="white" stop-opacity="0.5"/>
</linearGradient>
<linearGradient id="paint2_linear_15097_369957" x1="1" y1="10.1665" x2="-2.87861" y2="32.941" gradientUnits="userSpaceOnUse">
<stop stop-color="white" stop-opacity="0.4"/>
<stop offset="1" stop-color="white" stop-opacity="0"/>
</linearGradient>
<linearGradient id="paint3_linear_15097_369957" x1="6.04171" y1="16.5832" x2="-2.53994" y2="13.8176" gradientUnits="userSpaceOnUse">
<stop stop-color="white" stop-opacity="0"/>
<stop offset="1" stop-color="white" stop-opacity="0.5"/>
</linearGradient>
<linearGradient id="paint4_linear_15097_369957" x1="12.9167" y1="1" x2="9.03804" y2="23.7745" gradientUnits="userSpaceOnUse">
<stop stop-color="white" stop-opacity="0.4"/>
<stop offset="1" stop-color="white" stop-opacity="0"/>
</linearGradient>
<linearGradient id="paint5_linear_15097_369957" x1="17.9584" y1="7.41671" x2="9.37672" y2="4.65114" gradientUnits="userSpaceOnUse">
<stop stop-color="white" stop-opacity="0"/>
<stop offset="1" stop-color="white" stop-opacity="0.5"/>
</linearGradient>
<clipPath id="clip0_15097_369957">
<rect width="24" height="24" fill="white" transform="translate(0.333344 0.333374)"/>
</clipPath>
</defs>
</svg>
