<svg width="24" height="24" viewBox="0 0 24 24" fill="none" xmlns="http://www.w3.org/2000/svg">
<g clip-path="url(#clip0_15286_958)">
<foreignObject x="-37.1768" y="-37.1769" width="85.7704" height="83.0203"><div xmlns="http://www.w3.org/1999/xhtml" style="backdrop-filter:blur(18.92px);clip-path:url(#bgblur_1_15286_958_clip_path);height:100%;width:100%"></div></foreignObject><g filter="url(#filter0_dii_15286_958)" data-figma-bg-blur-radius="37.8435">
<path d="M9.14579 0.666626H2.27077C1.38622 0.666626 0.666656 1.38619 0.666656 2.27074V6.39575C0.666656 7.28047 1.38622 8.00003 2.27077 8.00003H9.14579C10.0305 8.00003 10.7501 7.28047 10.7501 6.39575V2.27074C10.7501 1.38619 10.0305 0.666626 9.14579 0.666626Z" fill="#F8F8F8" fill-opacity="0.02" shape-rendering="crispEdges"/>
<path d="M9.14579 0.666626H2.27077C1.38622 0.666626 0.666656 1.38619 0.666656 2.27074V6.39575C0.666656 7.28047 1.38622 8.00003 2.27077 8.00003H9.14579C10.0305 8.00003 10.7501 7.28047 10.7501 6.39575V2.27074C10.7501 1.38619 10.0305 0.666626 9.14579 0.666626Z" fill="url(#paint0_linear_15286_958)" fill-opacity="0.25" shape-rendering="crispEdges"/>
<path d="M2.27115 1.10999H9.14615C9.78581 1.11018 10.3063 1.63164 10.3063 2.27112V6.39612C10.3061 7.03563 9.78566 7.55608 9.14615 7.55627H2.27115C1.63167 7.55627 1.11021 7.03578 1.11002 6.39612V2.27112C1.11002 1.63149 1.63152 1.10999 2.27115 1.10999Z" stroke="url(#paint1_linear_15286_958)" stroke-opacity="0.25" stroke-width="0.886957" shape-rendering="crispEdges"/>
</g>
<foreignObject x="-34.0233" y="-24.8568" width="79.4633" height="82.2133"><div xmlns="http://www.w3.org/1999/xhtml" style="backdrop-filter:blur(17.34px);clip-path:url(#bgblur_2_15286_958_clip_path);height:100%;width:100%"></div></foreignObject><g filter="url(#filter1_dii_15286_958)" data-figma-bg-blur-radius="34.6899">
<path d="M9.14579 9.83313H2.27077C1.38622 9.83313 0.666656 10.5527 0.666656 11.4374V21.0624C0.666656 21.947 1.38622 22.6666 2.27077 22.6666H9.14579C10.0305 22.6666 10.7501 21.947 10.7501 21.0624V11.4374C10.7501 10.5527 10.0305 9.83313 9.14579 9.83313Z" fill="#F8F8F8" fill-opacity="0.02" shape-rendering="crispEdges"/>
<path d="M9.14579 9.83313H2.27077C1.38622 9.83313 0.666656 10.5527 0.666656 11.4374V21.0624C0.666656 21.947 1.38622 22.6666 2.27077 22.6666H9.14579C10.0305 22.6666 10.7501 21.947 10.7501 21.0624V11.4374C10.7501 10.5527 10.0305 9.83313 9.14579 9.83313Z" fill="url(#paint2_linear_15286_958)" fill-opacity="0.25" shape-rendering="crispEdges"/>
<path d="M2.27115 10.2394H9.14615C9.80619 10.2396 10.3434 10.7775 10.3434 11.4376V21.0626C10.3433 21.7224 9.80616 22.2597 9.14615 22.2599H2.27115C1.61117 22.2599 1.07301 21.7226 1.07291 21.0626V11.4376C1.07291 10.7774 1.61114 10.2394 2.27115 10.2394Z" stroke="url(#paint3_linear_15286_958)" stroke-opacity="0.25" stroke-width="0.813046" shape-rendering="crispEdges"/>
</g>
<path d="M21.0626 15.3331H14.1876C13.3029 15.3331 12.5833 16.0527 12.5833 16.9374V21.0624C12.5833 21.947 13.3029 22.6665 14.1876 22.6665H21.0626C21.9472 22.6665 22.6667 21.947 22.6667 21.0624V16.9374C22.6667 16.0527 21.9472 15.3331 21.0626 15.3331Z" fill="#13F584"/>
<foreignObject x="-22.1066" y="-34.0233" width="79.4633" height="82.2133"><div xmlns="http://www.w3.org/1999/xhtml" style="backdrop-filter:blur(17.34px);clip-path:url(#bgblur_3_15286_958_clip_path);height:100%;width:100%"></div></foreignObject><g filter="url(#filter2_dii_15286_958)" data-figma-bg-blur-radius="34.6899">
<path d="M21.0626 0.666626H14.1876C13.3029 0.666626 12.5833 1.38619 12.5833 2.27074V11.8958C12.5833 12.7805 13.3029 13.5 14.1876 13.5H21.0626C21.9472 13.5 22.6667 12.7805 22.6667 11.8958V2.27074C22.6667 1.38619 21.9472 0.666626 21.0626 0.666626Z" fill="#F8F8F8" fill-opacity="0.02" shape-rendering="crispEdges"/>
<path d="M21.0626 0.666626H14.1876C13.3029 0.666626 12.5833 1.38619 12.5833 2.27074V11.8958C12.5833 12.7805 13.3029 13.5 14.1876 13.5H21.0626C21.9472 13.5 22.6667 12.7805 22.6667 11.8958V2.27074C22.6667 1.38619 21.9472 0.666626 21.0626 0.666626Z" fill="url(#paint4_linear_15286_958)" fill-opacity="0.25" shape-rendering="crispEdges"/>
<path d="M14.1878 1.07288H21.0628C21.7227 1.07298 22.2601 1.61114 22.2601 2.27112V11.8961C22.2599 12.5561 21.7226 13.0933 21.0628 13.0934H14.1878C13.5277 13.0934 12.9897 12.5562 12.9895 11.8961V2.27112C12.9895 1.61111 13.5276 1.07288 14.1878 1.07288Z" stroke="url(#paint5_linear_15286_958)" stroke-opacity="0.25" stroke-width="0.813046" shape-rendering="crispEdges"/>
</g>
</g>
<defs>
<filter id="filter0_dii_15286_958" x="-37.1768" y="-37.1769" width="85.7704" height="83.0203" filterUnits="userSpaceOnUse" color-interpolation-filters="sRGB">
<feFlood flood-opacity="0" result="BackgroundImageFix"/>
<feColorMatrix in="SourceAlpha" type="matrix" values="0 0 0 0 0 0 0 0 0 0 0 0 0 0 0 0 0 0 127 0" result="hardAlpha"/>
<feMorphology radius="4.13913" operator="erode" in="SourceAlpha" result="effect1_dropShadow_15286_958"/>
<feOffset dy="9.46087"/>
<feGaussianBlur stdDeviation="3.54783"/>
<feComposite in2="hardAlpha" operator="out"/>
<feColorMatrix type="matrix" values="0 0 0 0 0.0705882 0 0 0 0 0.0705882 0 0 0 0 0.0705882 0 0 0 0.2 0"/>
<feBlend mode="normal" in2="BackgroundImageFix" result="effect1_dropShadow_15286_958"/>
<feBlend mode="normal" in="SourceGraphic" in2="effect1_dropShadow_15286_958" result="shape"/>
<feColorMatrix in="SourceAlpha" type="matrix" values="0 0 0 0 0 0 0 0 0 0 0 0 0 0 0 0 0 0 127 0" result="hardAlpha"/>
<feOffset/>
<feGaussianBlur stdDeviation="2.36522"/>
<feComposite in2="hardAlpha" operator="arithmetic" k2="-1" k3="1"/>
<feColorMatrix type="matrix" values="0 0 0 0 1 0 0 0 0 1 0 0 0 0 1 0 0 0 1 0"/>
<feBlend mode="multiply" in2="shape" result="effect2_innerShadow_15286_958"/>
<feColorMatrix in="SourceAlpha" type="matrix" values="0 0 0 0 0 0 0 0 0 0 0 0 0 0 0 0 0 0 127 0" result="hardAlpha"/>
<feOffset/>
<feGaussianBlur stdDeviation="2.36522"/>
<feComposite in2="hardAlpha" operator="arithmetic" k2="-1" k3="1"/>
<feColorMatrix type="matrix" values="0 0 0 0 0.972549 0 0 0 0 0.972549 0 0 0 0 0.972549 0 0 0 0.1 0"/>
<feBlend mode="normal" in2="effect2_innerShadow_15286_958" result="effect3_innerShadow_15286_958"/>
</filter>
<clipPath id="bgblur_1_15286_958_clip_path" transform="translate(37.1768 37.1769)"><path d="M9.14579 0.666626H2.27077C1.38622 0.666626 0.666656 1.38619 0.666656 2.27074V6.39575C0.666656 7.28047 1.38622 8.00003 2.27077 8.00003H9.14579C10.0305 8.00003 10.7501 7.28047 10.7501 6.39575V2.27074C10.7501 1.38619 10.0305 0.666626 9.14579 0.666626Z"/>
</clipPath><filter id="filter1_dii_15286_958" x="-34.0233" y="-24.8568" width="79.4633" height="82.2133" filterUnits="userSpaceOnUse" color-interpolation-filters="sRGB">
<feFlood flood-opacity="0" result="BackgroundImageFix"/>
<feColorMatrix in="SourceAlpha" type="matrix" values="0 0 0 0 0 0 0 0 0 0 0 0 0 0 0 0 0 0 127 0" result="hardAlpha"/>
<feMorphology radius="3.79421" operator="erode" in="SourceAlpha" result="effect1_dropShadow_15286_958"/>
<feOffset dy="8.67249"/>
<feGaussianBlur stdDeviation="3.25218"/>
<feComposite in2="hardAlpha" operator="out"/>
<feColorMatrix type="matrix" values="0 0 0 0 0.0705882 0 0 0 0 0.0705882 0 0 0 0 0.0705882 0 0 0 0.2 0"/>
<feBlend mode="normal" in2="BackgroundImageFix" result="effect1_dropShadow_15286_958"/>
<feBlend mode="normal" in="SourceGraphic" in2="effect1_dropShadow_15286_958" result="shape"/>
<feColorMatrix in="SourceAlpha" type="matrix" values="0 0 0 0 0 0 0 0 0 0 0 0 0 0 0 0 0 0 127 0" result="hardAlpha"/>
<feOffset/>
<feGaussianBlur stdDeviation="2.16812"/>
<feComposite in2="hardAlpha" operator="arithmetic" k2="-1" k3="1"/>
<feColorMatrix type="matrix" values="0 0 0 0 1 0 0 0 0 1 0 0 0 0 1 0 0 0 1 0"/>
<feBlend mode="multiply" in2="shape" result="effect2_innerShadow_15286_958"/>
<feColorMatrix in="SourceAlpha" type="matrix" values="0 0 0 0 0 0 0 0 0 0 0 0 0 0 0 0 0 0 127 0" result="hardAlpha"/>
<feOffset/>
<feGaussianBlur stdDeviation="2.16812"/>
<feComposite in2="hardAlpha" operator="arithmetic" k2="-1" k3="1"/>
<feColorMatrix type="matrix" values="0 0 0 0 0.972549 0 0 0 0 0.972549 0 0 0 0 0.972549 0 0 0 0.1 0"/>
<feBlend mode="normal" in2="effect2_innerShadow_15286_958" result="effect3_innerShadow_15286_958"/>
</filter>
<clipPath id="bgblur_2_15286_958_clip_path" transform="translate(34.0233 24.8568)"><path d="M9.14579 9.83313H2.27077C1.38622 9.83313 0.666656 10.5527 0.666656 11.4374V21.0624C0.666656 21.947 1.38622 22.6666 2.27077 22.6666H9.14579C10.0305 22.6666 10.7501 21.947 10.7501 21.0624V11.4374C10.7501 10.5527 10.0305 9.83313 9.14579 9.83313Z"/>
</clipPath><filter id="filter2_dii_15286_958" x="-22.1066" y="-34.0233" width="79.4633" height="82.2133" filterUnits="userSpaceOnUse" color-interpolation-filters="sRGB">
<feFlood flood-opacity="0" result="BackgroundImageFix"/>
<feColorMatrix in="SourceAlpha" type="matrix" values="0 0 0 0 0 0 0 0 0 0 0 0 0 0 0 0 0 0 127 0" result="hardAlpha"/>
<feMorphology radius="3.79421" operator="erode" in="SourceAlpha" result="effect1_dropShadow_15286_958"/>
<feOffset dy="8.67249"/>
<feGaussianBlur stdDeviation="3.25218"/>
<feComposite in2="hardAlpha" operator="out"/>
<feColorMatrix type="matrix" values="0 0 0 0 0.0705882 0 0 0 0 0.0705882 0 0 0 0 0.0705882 0 0 0 0.2 0"/>
<feBlend mode="normal" in2="BackgroundImageFix" result="effect1_dropShadow_15286_958"/>
<feBlend mode="normal" in="SourceGraphic" in2="effect1_dropShadow_15286_958" result="shape"/>
<feColorMatrix in="SourceAlpha" type="matrix" values="0 0 0 0 0 0 0 0 0 0 0 0 0 0 0 0 0 0 127 0" result="hardAlpha"/>
<feOffset/>
<feGaussianBlur stdDeviation="2.16812"/>
<feComposite in2="hardAlpha" operator="arithmetic" k2="-1" k3="1"/>
<feColorMatrix type="matrix" values="0 0 0 0 1 0 0 0 0 1 0 0 0 0 1 0 0 0 1 0"/>
<feBlend mode="multiply" in2="shape" result="effect2_innerShadow_15286_958"/>
<feColorMatrix in="SourceAlpha" type="matrix" values="0 0 0 0 0 0 0 0 0 0 0 0 0 0 0 0 0 0 127 0" result="hardAlpha"/>
<feOffset/>
<feGaussianBlur stdDeviation="2.16812"/>
<feComposite in2="hardAlpha" operator="arithmetic" k2="-1" k3="1"/>
<feColorMatrix type="matrix" values="0 0 0 0 0.972549 0 0 0 0 0.972549 0 0 0 0 0.972549 0 0 0 0.1 0"/>
<feBlend mode="normal" in2="effect2_innerShadow_15286_958" result="effect3_innerShadow_15286_958"/>
</filter>
<clipPath id="bgblur_3_15286_958_clip_path" transform="translate(22.1066 34.0233)"><path d="M21.0626 0.666626H14.1876C13.3029 0.666626 12.5833 1.38619 12.5833 2.27074V11.8958C12.5833 12.7805 13.3029 13.5 14.1876 13.5H21.0626C21.9472 13.5 22.6667 12.7805 22.6667 11.8958V2.27074C22.6667 1.38619 21.9472 0.666626 21.0626 0.666626Z"/>
</clipPath><linearGradient id="paint0_linear_15286_958" x1="0.666656" y1="0.666626" x2="-0.624344" y2="13.9325" gradientUnits="userSpaceOnUse">
<stop stop-color="white" stop-opacity="0.4"/>
<stop offset="1" stop-color="white" stop-opacity="0"/>
</linearGradient>
<linearGradient id="paint1_linear_15286_958" x1="5.70836" y1="4.33333" x2="-1.47866" y2="0.280109" gradientUnits="userSpaceOnUse">
<stop stop-color="white" stop-opacity="0"/>
<stop offset="1" stop-color="white" stop-opacity="0.5"/>
</linearGradient>
<linearGradient id="paint2_linear_15286_958" x1="0.666656" y1="9.83313" x2="-3.21196" y2="32.6076" gradientUnits="userSpaceOnUse">
<stop stop-color="white" stop-opacity="0.4"/>
<stop offset="1" stop-color="white" stop-opacity="0"/>
</linearGradient>
<linearGradient id="paint3_linear_15286_958" x1="5.70836" y1="16.2498" x2="-2.87328" y2="13.4843" gradientUnits="userSpaceOnUse">
<stop stop-color="white" stop-opacity="0"/>
<stop offset="1" stop-color="white" stop-opacity="0.5"/>
</linearGradient>
<linearGradient id="paint4_linear_15286_958" x1="12.5833" y1="0.666626" x2="8.70469" y2="23.4411" gradientUnits="userSpaceOnUse">
<stop stop-color="white" stop-opacity="0.4"/>
<stop offset="1" stop-color="white" stop-opacity="0"/>
</linearGradient>
<linearGradient id="paint5_linear_15286_958" x1="17.625" y1="7.08334" x2="9.04336" y2="4.31776" gradientUnits="userSpaceOnUse">
<stop stop-color="white" stop-opacity="0"/>
<stop offset="1" stop-color="white" stop-opacity="0.5"/>
</linearGradient>
<clipPath id="clip0_15286_958">
<rect width="24" height="24" fill="white"/>
</clipPath>
</defs>
</svg>
